<svg aria-label="avatar" class="h-[40px]" viewBox="0 0 470 470" xmlns="http://www.w3.org/2000/svg"><path d="m120.112 126.588 49.252-74.128 74.128 49.253-49.252 74.128z" fill="#62bb46"></path><path d="m379.4 298.9-74.1-49.2 49.2-74.1c41 27.2 52.1 82.4 24.9 123.3z" fill="#0db14b"></path><path d="m226.495 368.259 49.253-74.128 74.128 49.252-49.253 74.128z" fill="#0093ac"></path><path d="m194.19 175.844 49.252-74.128 111.11 73.823-49.253 74.128z" fill="#82c341"></path><path d="m115.435 294.438 49.253-74.128 111.109 73.824-49.253 74.128z" fill="#4ba6dd"></path><path d="M115.4 294.4c-40.9-27.2-52-82.4-24.8-123.3l74.1 49.2z" fill="#4e9b47"></path><path d="m90.588 171.06 29.552-44.477 74.128 49.253-29.552 44.476z" fill="#cbdb2a"></path><path d="m275.81 294.192 29.55-44.477 74.129 49.252-29.552 44.477z" fill="#68c9d0"></path></svg>